<svg width="11" height="16" viewBox="0 0 11 16" fill="none" xmlns="http://www.w3.org/2000/svg">
<path d="M1.18914 0.505885C1.05781 0.636946 0.953615 0.792622 0.882524 0.964001C0.811434 1.13538 0.774841 1.3191 0.774841 1.50463C0.774841 1.69017 0.811434 1.87389 0.882524 2.04527C0.953615 2.21665 1.05781 2.37232 1.18914 2.50338L6.6858 8.00005L1.18914 13.4967C0.924252 13.7616 0.775441 14.1209 0.775441 14.4955C0.775441 14.8701 0.924252 15.2293 1.18914 15.4942C1.45402 15.7591 1.81328 15.9079 2.18789 15.9079C2.56249 15.9079 2.92175 15.7591 3.18664 15.4942L9.68914 8.99172C9.82047 8.86066 9.92466 8.70498 9.99575 8.5336C10.0668 8.36222 10.1034 8.17851 10.1034 7.99297C10.1034 7.80743 10.0668 7.62371 9.99575 7.45233C9.92466 7.28096 9.82047 7.12528 9.68914 6.99422L3.18664 0.491718C2.6483 -0.0466154 1.74164 -0.046615 1.18914 0.505885Z" fill="#564300"/>
</svg>
