<svg width="17" height="25" viewBox="0 0 17 25" fill="none" xmlns="http://www.w3.org/2000/svg">
<path d="M16.0938 24.3125C15.8874 24.3131 15.688 24.2381 15.5332 24.1016L8.5 17.8478L1.46682 24.1016C1.34511 24.2098 1.19469 24.2804 1.03371 24.305C0.872734 24.3296 0.708077 24.3071 0.559609 24.2402C0.41114 24.1733 0.285204 24.0649 0.196996 23.928C0.108789 23.7911 0.0620789 23.6316 0.0625029 23.4688V4.0625C0.06348 3.16769 0.419373 2.30982 1.0521 1.67709C1.68482 1.04437 2.5427 0.688477 3.4375 0.6875H13.5625C14.4573 0.688477 15.3152 1.04437 15.9479 1.67709C16.5806 2.30982 16.9365 3.16769 16.9375 4.0625V23.4688C16.9375 23.6925 16.8486 23.9071 16.6904 24.0654C16.5321 24.2236 16.3175 24.3125 16.0938 24.3125Z" fill="#564300"/>
</svg>
