<svg width="31" height="21" viewBox="0 0 31 21" fill="none" xmlns="http://www.w3.org/2000/svg">
<path d="M2.50001 20.25C2.03959 20.25 1.65392 20.094 1.34301 19.782C1.03209 19.47 0.876089 19.0843 0.875006 18.625C0.873922 18.1657 1.02992 17.78 1.34301 17.468C1.65609 17.156 2.04176 17 2.50001 17H28.5C28.9604 17 29.3466 17.156 29.6586 17.468C29.9706 17.78 30.1261 18.1657 30.125 18.625C30.1239 19.0843 29.9679 19.4705 29.657 19.7836C29.3461 20.0967 28.9604 20.2522 28.5 20.25H2.50001ZM2.50001 12.125C2.03959 12.125 1.65392 11.969 1.34301 11.657C1.03209 11.345 0.876089 10.9593 0.875006 10.5C0.873922 10.0407 1.02992 9.655 1.34301 9.343C1.65609 9.031 2.04176 8.875 2.50001 8.875H28.5C28.9604 8.875 29.3466 9.031 29.6586 9.343C29.9706 9.655 30.1261 10.0407 30.125 10.5C30.1239 10.9593 29.9679 11.3455 29.657 11.6586C29.3461 11.9717 28.9604 12.1272 28.5 12.125H2.50001ZM2.50001 4C2.03959 4 1.65392 3.844 1.34301 3.532C1.03209 3.22 0.876089 2.83433 0.875006 2.375C0.873922 1.91567 1.02992 1.53 1.34301 1.218C1.65609 0.906 2.04176 0.75 2.50001 0.75H28.5C28.9604 0.75 29.3466 0.906 29.6586 1.218C29.9706 1.53 30.1261 1.91567 30.125 2.375C30.1239 2.83433 29.9679 3.22054 29.657 3.53362C29.3461 3.84671 28.9604 4.00217 28.5 4H2.50001Z" fill="#564300"/>
</svg>
