<svg width="18" height="20" viewBox="0 0 18 20" fill="none" xmlns="http://www.w3.org/2000/svg">
<path d="M3.99998 6.74988C3.48222 6.74985 2.97195 6.87351 2.51165 7.11058C2.05136 7.34765 1.65437 7.69126 1.35373 8.1128C1.0531 8.53434 0.857536 9.0216 0.783319 9.53402C0.709102 10.0464 0.758383 10.5692 0.927058 11.0587C1.09573 11.5482 1.37892 11.9903 1.75304 12.3482C2.12715 12.7062 2.58137 12.9695 3.07786 13.1164C3.57435 13.2633 4.09875 13.2894 4.60738 13.1926C5.11601 13.0958 5.59415 12.8789 6.00198 12.5599L6.06998 12.6139L10.8 15.9259C10.6596 16.7086 10.811 17.5157 11.2257 18.1943C11.6403 18.8729 12.2894 19.3759 13.05 19.6081C13.8106 19.8403 14.6299 19.7856 15.3528 19.4543C16.0758 19.123 16.6522 18.5381 16.9729 17.8104C17.2936 17.0827 17.3364 16.2627 17.0931 15.5055C16.8498 14.7484 16.3374 14.1068 15.6528 13.7021C14.9683 13.2974 14.1591 13.1577 13.3785 13.3095C12.5978 13.4613 11.9 13.8941 11.417 14.5259L6.93798 11.3909C7.13798 10.9699 7.24998 10.4979 7.24998 9.99988C7.24998 9.50188 7.13798 9.02988 6.93798 8.60888L11.418 5.47288C11.901 6.10466 12.5988 6.53743 13.3795 6.68925C14.1601 6.84107 14.9693 6.70141 15.6538 6.29671C16.3384 5.89201 16.8508 5.25035 17.0941 4.49323C17.3374 3.7361 17.2946 2.91606 16.9739 2.18835C16.6532 1.46063 16.0768 0.875767 15.3538 0.544472C14.6309 0.213177 13.8116 0.158451 13.051 0.390653C12.2904 0.622855 11.6413 1.12587 11.2267 1.80446C10.812 2.48306 10.6606 3.29013 10.801 4.07288L6.06998 7.38688L6.00198 7.43988C5.43076 6.99214 4.72576 6.74916 3.99998 6.74988Z" fill="#564300"/>
</svg>
